<svg xmlns="http://www.w3.org/2000/svg" width="512" height="512" viewBox="0 0 512 512">
<g>
<path d="M 379.46 223.38 C378.56,223.72 351.74,224.00 319.84,224.00 L 261.85 224.00 L 258.92 221.08 L 256.00 218.15 L 256.00 133.85 L 258.92 130.92 L 261.85 128.00 L 379.09 128.00 L 381.55 130.45 L 384.00 132.91 L 384.00 175.00 C384.00,219.28 383.77,221.72 379.46,223.38 Z" fill="rgb(37,99,233)"/>
<path d="M 219.46 223.38 C216.61,224.47 134.69,223.96 132.36,222.83 C131.19,222.26 129.73,220.70 129.11,219.35 C127.56,215.95 127.56,136.06 129.11,132.66 C129.72,131.32 131.32,129.72 132.66,129.11 C134.32,128.35 148.44,128.00 177.09,128.00 L 219.09 128.00 L 224.00 132.91 L 224.00 175.00 C224.00,219.28 223.77,221.72 219.46,223.38 Z" fill="rgb(80,70,227)"/>
<path d="M 379.46 383.38 C377.53,384.12 134.07,384.07 132.23,383.33 C131.53,383.05 130.29,381.53 129.48,379.96 C128.22,377.53 128.00,368.32 128.00,319.00 L 128.00 260.90 L 130.65 258.45 L 133.29 256.00 L 378.71 256.00 L 381.35 258.45 L 384.00 260.90 L 384.00 319.00 C384.00,380.38 383.91,381.67 379.46,383.38 Z" fill="rgb(122,58,234)"/>
<path d="M 0.00 256.00 L 0.00 0.00 L 256.00 0.00 L 512.00 0.00 L 512.00 256.00 L 512.00 512.00 L 256.00 512.00 L 0.00 512.00 L 0.00 256.00 ZM 379.46 383.38 C383.91,381.67 384.00,380.38 384.00,319.00 L 384.00 260.90 L 381.35 258.45 L 378.71 256.00 L 256.00 256.00 L 133.29 256.00 L 130.65 258.45 L 128.00 260.90 L 128.00 319.00 C128.00,368.32 128.22,377.53 129.48,379.96 C130.29,381.53 131.53,383.05 132.23,383.33 C134.07,384.07 377.53,384.12 379.46,383.38 ZM 219.46 223.38 C223.77,221.72 224.00,219.28 224.00,175.00 L 224.00 132.91 L 221.55 130.45 L 219.09 128.00 L 177.09 128.00 C148.44,128.00 134.32,128.35 132.66,129.11 C131.32,129.72 129.72,131.32 129.11,132.66 C127.56,136.06 127.56,215.95 129.11,219.35 C129.73,220.70 131.19,222.26 132.36,222.83 C134.69,223.96 216.61,224.47 219.46,223.38 ZM 379.46 223.38 C383.77,221.72 384.00,219.28 384.00,175.00 L 384.00 132.91 L 381.55 130.45 L 379.09 128.00 L 320.47 128.00 L 261.85 128.00 L 258.92 130.92 L 256.00 133.85 L 256.00 176.00 L 256.00 218.15 L 258.92 221.08 L 261.85 224.00 L 319.84 224.00 C351.74,224.00 378.56,223.72 379.46,223.38 Z" fill="rgb(254,254,255)"/>
</g>
</svg>